<svg width="13" height="16" viewBox="0 0 13 16" fill="none" xmlns="http://www.w3.org/2000/svg">
<path d="M12.9132 9.36778C12.7175 6.98156 11.5311 5.48622 10.4845 4.16665C9.51541 2.94503 8.6784 1.89009 8.6784 0.333904C8.6784 0.208904 8.60365 0.0946543 8.48512 0.037373C8.36623 -0.020252 8.22337 -0.0108145 8.11528 0.062748C6.54344 1.11606 5.23194 2.89134 4.7738 4.58522C4.45576 5.7645 4.41368 7.09025 4.40777 7.96584C2.95619 7.6755 2.62736 5.64212 2.62389 5.61997C2.60754 5.5145 2.53873 5.42272 2.43862 5.37259C2.33748 5.32312 2.21858 5.31953 2.11604 5.36706C2.03992 5.40156 0.247664 6.25437 0.143384 9.6594C0.136076 9.77269 0.135742 9.88631 0.135742 9.9999C0.135742 13.3079 3.01005 15.9995 6.54274 15.9995C6.54761 15.9998 6.55281 16.0005 6.55698 15.9995C6.55839 15.9995 6.55975 15.9995 6.56149 15.9995C10.0855 15.99 12.9497 13.3021 12.9497 9.9999C12.9497 9.83356 12.9132 9.36778 12.9132 9.36778ZM6.54274 15.3329C5.36505 15.3329 4.40707 14.3772 4.40707 13.2025C4.40707 13.1625 4.40674 13.1221 4.40984 13.0726C4.42409 12.5772 4.52457 12.239 4.63475 12.0141C4.84124 12.4294 5.21038 12.8112 5.81 12.8112C6.00675 12.8112 6.16596 12.6622 6.16596 12.4779C6.16596 12.0034 6.1764 11.4559 6.30257 10.9617C6.41486 10.5236 6.68319 10.0575 7.02316 9.68384C7.17436 10.1688 7.46915 10.5614 7.75696 10.9445C8.16888 11.4926 8.59467 12.0593 8.66942 13.0257C8.67393 13.083 8.67847 13.1407 8.67847 13.2025C8.6784 14.3772 7.72042 15.3329 6.54274 15.3329Z" fill="#FF0101"/>
</svg>
